<?xml version="1.0" encoding="utf-8"?>
<!-- Generator: Adobe Illustrator 24.0.2, SVG Export Plug-In . SVG Version: 6.00 Build 0)  -->
<svg version="1.1" id="Layer_1" xmlns="http://www.w3.org/2000/svg" xmlns:xlink="http://www.w3.org/1999/xlink" x="0px" y="0px"
	 viewBox="0 0 18 18" style="enable-background:new 0 0 18 18;" xml:space="preserve">
<style type="text/css">
	.st0{fill:#FFFFFF;}
</style>
  <symbol id="default" viewBox="0 0 18 18">
    <style type="text/css">
      .st0{fill:#FFFFFF;}
    </style>
    <g>
      <path class="st0" d="M17.6,3.3L14,6.9L11.1,4l3.6-3.6c-2-0.8-4.4-0.4-6,1.2s-2,4-1.2,6L0,15.1L2.9,18l7.6-7.6c2,0.8,4.4,0.5,6-1.2
        C18,7.7,18.4,5.3,17.6,3.3z"/>
      <rect x="13.4" y="13.4" transform="matrix(0.9623 -0.2721 0.2721 0.9623 -3.6164 4.7915)" class="st0" width="4.1" height="4.1"/>
    </g>
  </symbol>

  <symbol id="emptySymbol" viewBox="0 0 18 18">
    <style type="text/css">
      .st0{fill:none;stroke:#FFFFFF;stroke-miterlimit:10;}
      .st1{fill:none;stroke:#FFFFFF;stroke-width:1;stroke-miterlimit:10.0003;}
    </style>
    <g>
      <path class="st0" d="M17.6,3.3L14,6.9L11.1,4l3.6-3.6c-2-0.8-4.4-0.4-6,1.2s-2,4-1.2,6L0,15.1L2.9,18l7.6-7.6c2,0.8,4.4,0.5,6-1.2
        C18,7.7,18.4,5.3,17.6,3.3z"/>
      <rect x="13.4" y="13.4" transform="matrix(0.9623 -0.2721 0.2721 0.9623 -3.6192 4.7919)" class="st1" width="4.1" height="4.1"/>
    </g>
  </symbol>

  <symbol id="filledSymbol" viewBox="0 0 18 18">
    <style type="text/css">
      .st0{fill:#FFFFFF;}
    </style>
    <g>
      <path class="st0" d="M17.6,3.3L14,6.9L11.1,4l3.6-3.6c-2-0.8-4.4-0.4-6,1.2s-2,4-1.2,6L0,15.1L2.9,18l7.6-7.6c2,0.8,4.4,0.5,6-1.2
        C18,7.7,18.4,5.3,17.6,3.3z"/>
      <rect x="13.4" y="13.4" transform="matrix(0.9623 -0.2721 0.2721 0.9623 -3.6164 4.7915)" class="st0" width="4.1" height="4.1"/>
    </g>
  </symbol>
</svg>
