<?xml version="1.0" standalone="no"?>
<!DOCTYPE svg PUBLIC "-//W3C//DTD SVG 20010904//EN"
 "http://www.w3.org/TR/2001/REC-SVG-20010904/DTD/svg10.dtd">
<svg version="1.0" xmlns="http://www.w3.org/2000/svg"
 width="320.000000pt" height="320.000000pt" viewBox="0 0 320.000000 320.000000"
 preserveAspectRatio="xMidYMid meet">

<g transform="translate(0.000000,320.000000) scale(0.100000,-0.100000)"
fill="#000000" stroke="none">
<path d="M1154 2396 c-33 -15 -59 -62 -51 -93 3 -12 5 -8 6 10 1 38 42 77 81
77 63 0 93 -75 47 -118 -28 -27 -82 -29 -111 -4 -13 11 -17 12 -10 2 7 -10 9
-67 6 -167 -4 -130 -7 -152 -21 -155 -14 -3 -16 -22 -12 -163 1 -88 4 -161 5
-162 1 -2 37 -8 79 -15 l77 -12 0 -90 0 -91 402 0 403 0 0 -30 0 -30 -454 -3
-453 -2 4 35 c2 19 0 35 -4 35 -4 0 -8 -16 -8 -35 0 -35 0 -35 -45 -35 l-45 0
0 -282 0 -281 383 6 c210 4 457 7 550 7 l167 0 0 275 0 275 -40 0 -40 0 0 40
0 40 -60 0 -60 0 0 84 0 83 83 14 82 15 3 162 c2 135 0 162 -12 162 -11 0 -15
28 -21 135 -4 74 -5 146 -2 161 3 18 1 22 -6 15 -15 -15 -78 -13 -99 3 -10 7
-22 24 -27 37 -9 22 -10 22 -10 3 -1 -11 8 -29 19 -39 18 -17 20 -31 20 -172
0 -142 -1 -154 -17 -151 -14 2 -19 15 -21 56 l-3 52 -85 0 -84 0 0 65 0 65
-150 0 -150 0 0 -65 0 -65 -99 0 c-110 0 -111 -1 -111 -71 0 -33 -3 -39 -21
-39 -20 0 -21 2 -13 156 6 133 10 160 25 175 26 26 24 72 -3 103 -30 32 -56
38 -94 22z m604 -288 l3 -58 -141 0 -140 0 0 60 0 61 138 -3 137 -3 3 -57z
m-170 -140 c31 -31 -6 -82 -55 -76 -23 2 -29 9 -31 33 -6 45 54 75 86 43z
m120 0 c31 -31 -6 -82 -55 -76 -23 2 -29 9 -31 33 -6 45 54 75 86 43z m-448
-199 c0 -105 -4 -159 -11 -159 -5 0 -41 5 -80 11 l-69 12 0 151 0 151 80 -3
80 -4 0 -159z m848 19 l-3 -153 -74 -13 c-40 -7 -74 -12 -76 -10 -1 2 -5 74
-9 160 l-7 157 58 4 c32 2 70 4 86 5 l28 2 -3 -152z m-440 -4 c28 -52 52 -99
52 -105 0 -7 -33 -8 -102 -4 -57 4 -104 9 -106 10 -4 4 92 195 98 195 3 -1 29
-43 58 -96z m50 -186 c3 -16 -7 -18 -102 -18 -82 0 -106 3 -106 13 0 25 13 28
109 25 82 -3 96 -6 99 -20z"/>
<path d="M1527 1948 c-7 -20 12 -48 28 -42 23 9 19 54 -4 54 -11 0 -21 -6 -24
-12z"/>
<path d="M1647 1948 c-7 -20 12 -48 28 -42 23 9 19 54 -4 54 -11 0 -21 -6 -24
-12z"/>
<path d="M2015 2391 c38 -8 59 -21 73 -46 6 -11 12 -14 12 -7 0 26 -48 62 -82
61 l-33 -2 30 -6z"/>
<path d="M1959 2373 c-13 -16 -12 -17 4 -4 9 7 17 15 17 17 0 8 -8 3 -21 -13z"/>
</g>
</svg>
